<?xml version="1.0" encoding="UTF-8" standalone="no"?>
<svg width="1029px" height="841px" viewBox="0 0 1029 841" version="1.1" xmlns="http://www.w3.org/2000/svg" xmlns:xlink="http://www.w3.org/1999/xlink">
    <!-- Generator: Sketch 3.7 (28169) - http://www.bohemiancoding.com/sketch -->
    <title>logo</title>
    <desc>Created with Sketch.</desc>
    <defs></defs>
    <g id="Page-1" stroke="none" stroke-width="1" fill="none" fill-rule="evenodd">
        <g id="_favicon_template" fill="#0088CC">
            <g id="Page-1">
                <g id="favicon-template">
                    <g id="logo">
                        <polygon id="Shape" points="544.252061 234.256676 579.153114 337.281054 688.673375 142.084811 1029.08193 0.108280006 738.989155 233.763901 514.397496 618.266005 290.172855 233.763901 0.0800753239 0.108280006 340.488635 142.084811 450.020365 337.281054 478.75094 193.654299 514.581005 176.097753 587.158679 217.009547"></polygon>
                        <polygon id="Shape" points="300.736072 338.759379 165.811332 251.02249 30.1525566 71.9273873 254.193689 258.356817"></polygon>
                        <polygon id="Shape" points="386.274045 485.468843 183.072615 297.35481 327.528336 385.0344"></polygon>
                        <polygon id="Shape" points="728.437407 338.759379 863.350678 251.02249 998.997984 71.9273873 774.968321 258.356817"></polygon>
                        <polygon id="Shape" points="642.899434 485.468843 846.089395 297.35481 701.645143 385.0344"></polygon>
                        <polygon id="Shape" points="438.356096 819.375549 389.336346 748.393014 478.315107 630.104068"></polygon>
                        <polygon id="Shape" points="587.846837 819.375549 636.866587 748.393014 547.876357 630.104068"></polygon>
                        <polygon id="Shape" points="514.397496 666.317308 478.315107 840.839916 547.876357 840.839916"></polygon>
                    </g>
                </g>
            </g>
        </g>
    </g>
</svg>