<?xml version="1.0" encoding="UTF-8" standalone="no"?>
<svg width="221px" height="30px" viewBox="0 0 221 30" version="1.1" xmlns="http://www.w3.org/2000/svg" xmlns:xlink="http://www.w3.org/1999/xlink">
    <!-- Generator: Sketch 3.7 (28169) - http://www.bohemiancoding.com/sketch -->
    <title>Group</title>
    <desc>Created with Sketch.</desc>
    <defs></defs>
    <g id="Page-1" stroke="none" stroke-width="1" fill="none" fill-rule="evenodd">
        <g id="Group" fill="#FFFFFF">
            <path d="M62.089,6.1 C61.765,6.1 61.522,6.37 61.522,6.667 L61.522,25 L62.872,25 C63.169,25 63.439,24.757 63.439,24.433 L63.439,16.792 C63.439,16.522 63.655,16.333 63.925,16.333 L65.221,16.333 C65.842,16.333 66.112,16.036 66.247,15.793 L66.895,14.389 L63.439,14.389 L63.439,8.503 C63.439,8.26 63.655,8.044 63.898,8.044 L66.058,8.044 C66.679,8.044 66.949,7.747 67.084,7.504 C67.165,7.342 67.516,6.586 67.705,6.1 L62.089,6.1 Z M81.284,25 L79.151,25 L77.45,11.986 L75.749,25 L73.616,25 L76.478,6.1 L77.531,6.1 C78.341,6.1 78.476,6.613 78.557,7.126 L81.284,25 Z M90.651,23.083 L90.651,6.694 C90.651,6.37 90.381,6.127 90.057,6.1 L88.707,6.1 L88.707,25 L93.351,25 C93.972,25 94.269,24.73 94.404,24.487 C94.485,24.325 94.809,23.569 95.025,23.083 L90.651,23.083 Z M106.984,18.223 C106.498,18.439 105.742,18.763 105.58,18.844 C105.337,18.979 105.067,19.276 105.067,19.897 L105.067,22.435 C105.067,23.029 104.608,23.488 104.014,23.488 C103.447,23.488 102.988,23.029 102.988,22.435 L102.988,8.638 C102.988,8.071 103.447,7.612 104.014,7.612 C104.608,7.612 105.067,8.071 105.067,8.638 L105.067,12.877 L106.471,12.229 C106.714,12.121 106.984,11.824 106.984,11.203 L106.984,8.314 C106.984,7.018 105.958,5.938 104.662,5.911 L103.474,5.911 C102.124,5.911 101.044,6.991 101.044,8.314 L101.044,22.786 C101.044,24.109 102.124,25.189 103.474,25.189 L104.662,25.189 C105.958,25.135 106.984,24.082 106.984,22.786 L106.984,18.223 Z M117.458,5.911 C116.108,5.911 115.028,6.991 115.028,8.314 L115.028,22.813 C115.055,24.109 116.135,25.189 117.458,25.189 L118.943,25.189 C120.239,25.135 121.265,24.109 121.292,22.813 L121.292,8.314 C121.292,7.018 120.239,5.965 118.943,5.911 L117.458,5.911 Z M117.998,23.488 C117.431,23.461 116.972,23.002 116.972,22.435 L116.972,8.665 C116.972,8.098 117.431,7.639 117.998,7.612 L118.295,7.612 C118.862,7.612 119.321,8.071 119.321,8.665 L119.321,22.435 C119.321,23.029 118.862,23.488 118.295,23.488 L117.998,23.488 Z M135.465,6.1 L133.521,6.1 L133.521,16.981 L131.523,7.153 C131.415,6.613 131.226,6.1 130.146,6.1 L129.255,6.1 L129.255,25 L131.199,25 L131.199,14.443 L133.278,23.785 C133.359,24.163 133.521,25 134.574,25 L135.465,25 L135.465,6.1 Z M163.217,10.204 C163.46,10.069 163.757,9.772 163.757,9.151 L163.757,8.422 C163.757,7.126 162.704,5.938 161.408,5.911 L160.193,5.911 C158.843,5.911 157.763,7.099 157.763,8.422 L157.763,10.366 C157.763,10.366 157.682,11.635 158.627,13.363 L160.949,17.71 C160.949,17.71 161.786,19.168 161.786,20.275 L161.786,22.435 C161.786,23.029 161.327,23.488 160.76,23.488 C160.193,23.488 159.734,23.029 159.734,22.462 L159.734,19.168 C159.248,19.384 158.465,19.735 158.303,19.789 C158.06,19.924 157.763,20.221 157.763,20.842 L157.763,22.786 C157.79,24.082 158.816,25.135 160.112,25.189 L161.327,25.189 C162.677,25.189 163.757,24.109 163.757,22.786 L163.757,20.383 C163.757,20.383 163.838,19.114 162.893,17.386 L160.571,13.012 C160.571,13.012 159.734,11.581 159.734,10.474 L159.734,8.665 C159.734,8.071 160.193,7.612 160.76,7.612 C161.327,7.612 161.786,8.071 161.786,8.665 L161.786,10.852 C162.299,10.636 163.055,10.285 163.217,10.204 L163.217,10.204 Z M178.767,6.1 L171.045,6.1 C170.721,6.1 170.451,6.37 170.451,6.694 L170.451,8.017 L173.178,8.017 L173.178,24.595 C173.178,24.73 173.259,25 173.718,25 L175.095,25 L175.095,8.476 C175.122,8.233 175.311,8.017 175.581,8.017 L177.093,8.017 C177.714,8.017 178.011,7.747 178.119,7.504 L178.767,6.1 Z M187.108,5.911 C185.758,5.911 184.678,6.991 184.678,8.314 L184.678,22.813 C184.705,24.109 185.785,25.189 187.108,25.189 L188.593,25.189 C189.889,25.135 190.915,24.109 190.942,22.813 L190.942,8.314 C190.942,7.018 189.889,5.965 188.593,5.911 L187.108,5.911 Z M187.648,23.488 C187.081,23.461 186.622,23.002 186.622,22.435 L186.622,8.665 C186.622,8.098 187.081,7.639 187.648,7.612 L187.945,7.612 C188.512,7.612 188.971,8.071 188.971,8.665 L188.971,22.435 C188.971,23.029 188.512,23.488 187.945,23.488 L187.648,23.488 Z M205.034,18.223 C204.548,18.439 203.792,18.763 203.63,18.844 C203.387,18.979 203.117,19.276 203.117,19.897 L203.117,22.435 C203.117,23.029 202.658,23.488 202.064,23.488 C201.497,23.488 201.038,23.029 201.038,22.435 L201.038,8.638 C201.038,8.071 201.497,7.612 202.064,7.612 C202.658,7.612 203.117,8.071 203.117,8.638 L203.117,12.877 L204.521,12.229 C204.764,12.121 205.034,11.824 205.034,11.203 L205.034,8.314 C205.034,7.018 204.008,5.938 202.712,5.911 L201.524,5.911 C200.174,5.911 199.094,6.991 199.094,8.314 L199.094,22.786 C199.094,24.109 200.174,25.189 201.524,25.189 L202.712,25.189 C204.008,25.135 205.034,24.082 205.034,22.786 L205.034,18.223 Z M220.206,25 L216.939,14.659 L219.99,6.154 L217.965,6.154 L215.589,12.985 L215.589,6.1 L214.293,6.1 C214.077,6.127 213.672,6.235 213.672,6.829 L213.672,25 L215.589,25 L215.589,16.549 L218.181,25 L220.206,25 Z" id="Falcon-STOCK"></path>
            <g id="logo">
                <polygon id="Shape" points="19.3657143 8.33959184 20.6077551 12.0089796 24.5053061 5.05673469 36.6195918 9.10952225e-16 26.2959184 8.32204082 18.3032653 22.0167347 10.3236735 8.32204082 -9.10952225e-16 9.10952225e-16 12.1142857 5.05673469 16.0122449 12.0089796 17.0346939 6.89346939 18.3097959 6.26816327 20.8926531 7.72530612"></polygon>
                <polygon id="Shape" points="10.6995918 12.0616327 5.89795918 8.93673469 1.07020408 2.55795918 9.04326531 9.19795918"></polygon>
                <polygon id="Shape" points="13.7436735 17.2869388 6.5122449 10.5869388 11.6530612 13.7097959"></polygon>
                <polygon id="Shape" points="25.9204082 12.0616327 30.7216327 8.93673469 35.5489796 2.55795918 27.5763265 9.19795918"></polygon>
                <polygon id="Shape" points="22.8763265 17.2869388 30.1073469 10.5869388 24.9669388 13.7097959"></polygon>
                <polygon id="Shape" points="15.5971429 29.1795918 13.8526531 26.6514286 17.0191837 22.4383673"></polygon>
                <polygon id="Shape" points="20.9171429 29.1795918 22.6616327 26.6514286 19.4946939 22.4383673"></polygon>
                <polygon id="Shape" points="18.3032653 23.7281633 17.0191837 29.9440816 19.4946939 29.9440816"></polygon>
            </g>
        </g>
    </g>
</svg>