<?xml version="1.0" encoding="UTF-8" standalone="no"?>
<svg width="215px" height="86px" viewBox="0 0 215 86" version="1.1" xmlns="http://www.w3.org/2000/svg" xmlns:xlink="http://www.w3.org/1999/xlink">
    <!-- Generator: Sketch 3.8.2 (29753) - http://www.bohemiancoding.com/sketch -->
    <title>Geelong, Australia</title>
    <desc>Created with Sketch.</desc>
    <defs></defs>
    <g id="Page-1" stroke="none" stroke-width="1" fill="none" fill-rule="evenodd">
        <path d="M21.7,11.2 C21.1599973,10.7199976 20.485004,10.3525013 19.675,10.0975 C18.8649959,9.84249872 18.0700039,9.715 17.29,9.715 C16.4199956,9.715 15.6250036,9.87249843 14.905,10.1875 C14.1849964,10.5025016 13.5625026,10.9374972 13.0375,11.4925 C12.5124974,12.0475028 12.1000015,12.7149961 11.8,13.495 C11.4999985,14.2750039 11.35,15.1149955 11.35,16.015 C11.35,16.9150045 11.5149983,17.7549961 11.845,18.535 C12.1750017,19.3150039 12.6249972,19.9824972 13.195,20.5375 C13.7650028,21.0925028 14.4324962,21.5274984 15.1975,21.8425 C15.9625038,22.1575016 16.7799956,22.315 17.65,22.315 C18.6700051,22.315 19.5999958,22.0975022 20.44,21.6625 C21.2800042,21.2274978 21.999997,20.6350038 22.6,19.885 L19.9,19.885 L19.9,13.585 L31.465,13.585 L31.465,23.575 C30.7749966,24.8050061 29.9500048,25.922495 28.99,26.9275 C28.0299952,27.932505 26.9575059,28.7949964 25.7725,29.515 C24.5874941,30.2350036 23.3050069,30.7899981 21.925,31.18 C20.5449931,31.570002 19.1200073,31.765 17.65,31.765 C15.4899892,31.765 13.4500096,31.360004 11.53,30.55 C9.6099904,29.7399959 7.93750713,28.6300071 6.5125,27.22 C5.08749288,25.809993 3.96250413,24.1450096 3.1375,22.225 C2.31249588,20.3049904 1.9,18.2350111 1.9,16.015 C1.9,13.8549892 2.2899961,11.8150096 3.07,9.895 C3.8500039,7.9749904 4.92249317,6.30250713 6.2875,4.8775 C7.65250682,3.45249288 9.27249062,2.32750413 11.1475,1.5025 C13.0225094,0.677495875 15.0399892,0.265 17.2,0.265 C18.8800084,0.265 20.3349938,0.42999835 21.565,0.76 C22.7950062,1.09000165 23.8299958,1.4649979 24.67,1.885 C25.6600049,2.3650024 26.4849967,2.88999715 27.145,3.46 L21.7,11.2 Z M33.94,0.985 L51.625,0.985 L51.625,8.86 L43.525,8.86 L43.525,12.19 L51.49,12.19 L51.49,19.66 L43.525,19.66 L43.525,23.125 L51.94,23.125 L51.94,31 L33.94,31 L33.94,0.985 Z M54.64,0.985 L72.325,0.985 L72.325,8.86 L64.225,8.86 L64.225,12.19 L72.19,12.19 L72.19,19.66 L64.225,19.66 L64.225,23.125 L72.64,23.125 L72.64,31 L54.64,31 L54.64,0.985 Z M75.34,0.985 L85.33,0.985 L85.33,23.125 L93.61,23.125 L93.61,31 L75.34,31 L75.34,0.985 Z M94.51,16.015 C94.51,13.8549892 94.9224959,11.8150096 95.7475,9.895 C96.5725041,7.9749904 97.6974929,6.30250713 99.1225,4.8775 C100.547507,3.45249288 102.21999,2.32750413 104.14,1.5025 C106.06001,0.677495875 108.099989,0.265 110.26,0.265 C112.420011,0.265 114.45999,0.677495875 116.38,1.5025 C118.30001,2.32750413 119.972493,3.45249288 121.3975,4.8775 C122.822507,6.30250713 123.947496,7.9749904 124.7725,9.895 C125.597504,11.8150096 126.01,13.8549892 126.01,16.015 C126.01,18.1750108 125.597504,20.2149904 124.7725,22.135 C123.947496,24.0550096 122.822507,25.7274929 121.3975,27.1525 C119.972493,28.5775071 118.30001,29.7024959 116.38,30.5275 C114.45999,31.3525041 112.420011,31.765 110.26,31.765 C108.099989,31.765 106.06001,31.3525041 104.14,30.5275 C102.21999,29.7024959 100.547507,28.5775071 99.1225,27.1525 C97.6974929,25.7274929 96.5725041,24.0550096 95.7475,22.135 C94.9224959,20.2149904 94.51,18.1750108 94.51,16.015 L94.51,16.015 Z M103.96,16.015 C103.96,16.8850044 104.124998,17.7024962 104.455,18.4675 C104.785002,19.2325038 105.234997,19.8999971 105.805,20.47 C106.375003,21.0400029 107.042496,21.4899984 107.8075,21.82 C108.572504,22.1500016 109.389996,22.315 110.26,22.315 C111.130004,22.315 111.947496,22.1500016 112.7125,21.82 C113.477504,21.4899984 114.144997,21.0400029 114.715,20.47 C115.285003,19.8999971 115.734998,19.2325038 116.065,18.4675 C116.395002,17.7024962 116.56,16.8850044 116.56,16.015 C116.56,15.1449956 116.395002,14.3275038 116.065,13.5625 C115.734998,12.7974962 115.285003,12.1300028 114.715,11.56 C114.144997,10.9899972 113.477504,10.5400017 112.7125,10.21 C111.947496,9.87999835 111.130004,9.715 110.26,9.715 C109.389996,9.715 108.572504,9.87999835 107.8075,10.21 C107.042496,10.5400017 106.375003,10.9899972 105.805,11.56 C105.234997,12.1300028 104.785002,12.7974962 104.455,13.5625 C104.124998,14.3275038 103.96,15.1449956 103.96,16.015 L103.96,16.015 Z M128.485,0.985 L136.36,0.985 L144.64,12.55 L144.64,0.985 L154.045,0.985 L154.045,31 L146.125,31 L137.89,19.48 L137.89,31 L128.485,31 L128.485,0.985 Z M176.32,11.2 C175.779997,10.7199976 175.105004,10.3525013 174.295,10.0975 C173.484996,9.84249872 172.690004,9.715 171.91,9.715 C171.039996,9.715 170.245004,9.87249843 169.525,10.1875 C168.804996,10.5025016 168.182503,10.9374972 167.6575,11.4925 C167.132497,12.0475028 166.720002,12.7149961 166.42,13.495 C166.119999,14.2750039 165.97,15.1149955 165.97,16.015 C165.97,16.9150045 166.134998,17.7549961 166.465,18.535 C166.795002,19.3150039 167.244997,19.9824972 167.815,20.5375 C168.385003,21.0925028 169.052496,21.5274984 169.8175,21.8425 C170.582504,22.1575016 171.399996,22.315 172.27,22.315 C173.290005,22.315 174.219996,22.0975022 175.06,21.6625 C175.900004,21.2274978 176.619997,20.6350038 177.22,19.885 L174.52,19.885 L174.52,13.585 L186.085,13.585 L186.085,23.575 C185.394997,24.8050061 184.570005,25.922495 183.61,26.9275 C182.649995,27.932505 181.577506,28.7949964 180.3925,29.515 C179.207494,30.2350036 177.925007,30.7899981 176.545,31.18 C175.164993,31.570002 173.740007,31.765 172.27,31.765 C170.109989,31.765 168.07001,31.360004 166.15,30.55 C164.22999,29.7399959 162.557507,28.6300071 161.1325,27.22 C159.707493,25.809993 158.582504,24.1450096 157.7575,22.225 C156.932496,20.3049904 156.52,18.2350111 156.52,16.015 C156.52,13.8549892 156.909996,11.8150096 157.69,9.895 C158.470004,7.9749904 159.542493,6.30250713 160.9075,4.8775 C162.272507,3.45249288 163.892491,2.32750413 165.7675,1.5025 C167.642509,0.677495875 169.659989,0.265 171.82,0.265 C173.500008,0.265 174.954994,0.42999835 176.185,0.76 C177.415006,1.09000165 178.449996,1.4649979 179.29,1.885 C180.280005,2.3650024 181.104997,2.88999715 181.765,3.46 L176.32,11.2 Z M190,23.485 L198.55,23.485 L194.635,35.635 L186.985,35.635 L190,23.485 Z M11.485,54.985 L18.685,54.985 L30.07,85 L20.62,85 L19.63,82.3 L10.54,82.3 L9.55,85 L0.1,85 L11.485,54.985 Z M17.11,75.685 L15.085,70.42 L13.06,75.685 L17.11,75.685 Z M43.03,85.765 C41.1399905,85.765 39.4300076,85.5250024 37.9,85.045 C36.3699924,84.5649976 35.0650054,83.8450048 33.985,82.885 C32.9049946,81.9249952 32.0725029,80.7100074 31.4875,79.24 C30.9024971,77.7699927 30.61,76.0450099 30.61,74.065 L30.61,54.985 L40.195,54.985 L40.195,73.66 C40.195,74.7100052 40.4124978,75.5124972 40.8475,76.0675 C41.2825022,76.6225028 42.0099949,76.9 43.03,76.9 C44.0500051,76.9 44.7774978,76.6225028 45.2125,76.0675 C45.6475022,75.5124972 45.865,74.7100052 45.865,73.66 L45.865,54.985 L55.495,54.985 L55.495,74.065 C55.495,76.0450099 55.2025029,77.7699927 54.6175,79.24 C54.0324971,80.7100074 53.1925055,81.9249952 52.0975,82.885 C51.0024945,83.8450048 49.6900076,84.5649976 48.16,85.045 C46.6299924,85.5250024 44.9200095,85.765 43.03,85.765 L43.03,85.765 Z M57.7,75.685 C58.3600033,75.8950011 59.0499964,76.0599994 59.77,76.18 C60.370003,76.3300008 61.0524962,76.4499996 61.8175,76.54 C62.5825038,76.6300005 63.3549961,76.675 64.135,76.675 C65.5150069,76.675 66.205,76.1650051 66.205,75.145 C66.205,74.754998 65.9950021,74.357502 65.575,73.9525 C65.1549979,73.547498 64.6225032,73.0975025 63.9775,72.6025 C63.3324968,72.1074975 62.6425037,71.560003 61.9075,70.96 C61.1724963,70.359997 60.4825032,69.6700039 59.8375,68.89 C59.1924968,68.1099961 58.6600021,67.2325049 58.24,66.2575 C57.8199979,65.2824951 57.61,64.1650063 57.61,62.905 C57.61,61.4949929 57.8649974,60.2500054 58.375,59.17 C58.8850025,58.0899946 59.5899955,57.1900036 60.49,56.47 C61.3900045,55.7499964 62.4474939,55.2025019 63.6625,54.8275 C64.8775061,54.4524981 66.1749931,54.265 67.555,54.265 C68.2750036,54.265 68.9949964,54.3024996 69.715,54.3775 C70.4350036,54.4525004 71.0799971,54.5199997 71.65,54.58 C72.3100033,54.6700004 72.9549968,54.7599995 73.585,54.85 L73.585,63.265 C73.3449988,63.2349999 73.0750015,63.2050001 72.775,63.175 C72.5349988,63.1449998 72.2650015,63.1150002 71.965,63.085 C71.6649985,63.0549999 71.3500016,63.04 71.02,63.04 C70.8399991,63.04 70.6150014,63.0474999 70.345,63.0625 C70.0749986,63.0775001 69.8200012,63.1149997 69.58,63.175 C69.3399988,63.2350003 69.1300009,63.3399993 68.95,63.49 C68.7699991,63.6400008 68.68,63.8499986 68.68,64.12 C68.68,64.3600012 68.882498,64.6599982 69.2875,65.02 C69.692502,65.3800018 70.1874971,65.7999976 70.7725,66.28 C71.3575029,66.7600024 72.0024965,67.3149968 72.7075,67.945 C73.4125035,68.5750031 74.0574971,69.2949959 74.6425,70.105 C75.2275029,70.915004 75.722498,71.8299949 76.1275,72.85 C76.532502,73.8700051 76.735,75.0099937 76.735,76.27 C76.735,77.5900066 76.5250021,78.8274942 76.105,79.9825 C75.6849979,81.1375058 75.0325044,82.1424957 74.1475,82.9975 C73.2624956,83.8525043 72.1300069,84.5274975 70.75,85.0225 C69.3699931,85.5175025 67.7350095,85.765 65.845,85.765 C64.7049943,85.765 63.6475049,85.7125005 62.6725,85.6075 C61.6974951,85.5024995 60.8350037,85.3750008 60.085,85.225 C59.2149956,85.0749993 58.4200036,84.8950011 57.7,84.685 L57.7,75.685 Z M82.72,62.86 L77.185,62.86 L77.185,54.985 L98.155,54.985 L98.155,62.86 L92.62,62.86 L92.62,85 L82.72,85 L82.72,62.86 Z M99.73,54.985 L110.08,54.985 C112.00001,54.985 113.777492,55.2399975 115.4125,55.75 C117.047508,56.2600025 118.464994,57.009995 119.665,58 C120.865006,58.990005 121.802497,60.2124927 122.4775,61.6675 C123.152503,63.1225073 123.49,64.7949905 123.49,66.685 C123.49,68.1850075 123.280002,69.4599948 122.86,70.51 C122.439998,71.5600053 121.975003,72.4299965 121.465,73.12 C120.864997,73.9000039 120.190004,74.5599973 119.44,75.1 L125.065,85 L113.815,85 L109.315,77.395 L109.315,85 L99.73,85 L99.73,54.985 Z M109.315,69.745 L109.81,69.745 C110.950006,69.745 111.917496,69.4900025 112.7125,68.98 C113.507504,68.4699974 113.905,67.615006 113.905,66.415 C113.905,65.214994 113.507504,64.3600025 112.7125,63.85 C111.917496,63.3399974 110.950006,63.085 109.81,63.085 L109.315,63.085 L109.315,69.745 Z M134.875,54.985 L142.075,54.985 L153.46,85 L144.01,85 L143.02,82.3 L133.93,82.3 L132.94,85 L123.49,85 L134.875,54.985 Z M140.5,75.685 L138.475,70.42 L136.45,75.685 L140.5,75.685 Z M154.135,54.985 L164.125,54.985 L164.125,77.125 L172.405,77.125 L172.405,85 L154.135,85 L154.135,54.985 Z M173.98,54.985 L184.15,54.985 L184.15,85 L173.98,85 L173.98,54.985 Z M196.21,54.985 L203.41,54.985 L214.795,85 L205.345,85 L204.355,82.3 L195.265,82.3 L194.275,85 L184.825,85 L196.21,54.985 Z M201.835,75.685 L199.81,70.42 L197.785,75.685 L201.835,75.685 Z" id="Geelong,-Australia" fill="#FFFFFF"></path>
    </g>
</svg>