<?xml version="1.0" encoding="UTF-8" standalone="no"?>
<svg width="659px" height="72px" viewBox="0 0 659 72" version="1.1" xmlns="http://www.w3.org/2000/svg" xmlns:xlink="http://www.w3.org/1999/xlink">
    <!-- Generator: Sketch 3.8.3 (29802) - http://www.bohemiancoding.com/sketch -->
    <title>Geelong in 4K</title>
    <desc>Created with Sketch.</desc>
    <defs></defs>
    <g id="Page-1" stroke="none" stroke-width="1" fill="none" fill-rule="evenodd" stroke-opacity="0.240149457">
        <path d="M45,25 C43.799994,23.933328 42.300009,23.1166695 40.5,22.55 C38.699991,21.9833305 36.933342,21.7 35.2,21.7 C33.266657,21.7 31.500008,22.0499965 29.9,22.75 C28.299992,23.4500035 26.9166725,24.4166605 25.75,25.65 C24.5833275,26.8833395 23.66667,28.366658 23,30.1 C22.33333,31.833342 22,33.69999 22,35.7 C22,37.70001 22.366663,39.566658 23.1,41.3 C23.833337,43.033342 24.833327,44.5166605 26.1,45.75 C27.366673,46.9833395 28.8499915,47.9499965 30.55,48.65 C32.2500085,49.3500035 34.066657,49.7 36,49.7 C38.266678,49.7 40.333324,49.2166715 42.2,48.25 C44.066676,47.2833285 45.66666,45.966675 47,44.3 L41,44.3 L41,30.3 L66.7,30.3 L66.7,52.5 C65.166659,55.233347 63.333344,57.7166555 61.2,59.95 C59.066656,62.1833445 56.6833465,64.099992 54.05,65.7 C51.4166535,67.300008 48.566682,68.533329 45.5,69.4 C42.433318,70.266671 39.266683,70.7 36,70.7 C31.199976,70.7 26.666688,69.800009 22.4,68 C18.133312,66.199991 14.4166825,63.733349 11.25,60.6 C8.0833175,57.466651 5.5833425,53.766688 3.75,49.5 C1.9166575,45.233312 1,40.633358 1,35.7 C1,30.899976 1.866658,26.366688 3.6,22.1 C5.333342,17.833312 7.7166515,14.1166825 10.75,10.95 C13.7833485,7.7833175 17.3833125,5.2833425 21.55,3.45 C25.7166875,1.6166575 30.199976,0.7 35,0.7 C38.733352,0.7 41.966653,1.066663 44.7,1.8 C47.433347,2.533337 49.733324,3.366662 51.6,4.3 C53.800011,5.366672 55.633326,6.533327 57.1,7.8 L45,25 Z M72.2,2.3 L111.5,2.3 L111.5,19.8 L93.5,19.8 L93.5,27.2 L111.2,27.2 L111.2,43.8 L93.5,43.8 L93.5,51.5 L112.2,51.5 L112.2,69 L72.2,69 L72.2,2.3 Z M118.2,2.3 L157.5,2.3 L157.5,19.8 L139.5,19.8 L139.5,27.2 L157.2,27.2 L157.2,43.8 L139.5,43.8 L139.5,51.5 L158.2,51.5 L158.2,69 L118.2,69 L118.2,2.3 Z M164.2,2.3 L186.4,2.3 L186.4,51.5 L204.8,51.5 L204.8,69 L164.2,69 L164.2,2.3 Z M206.8,35.7 C206.8,30.899976 207.716657,26.366688 209.55,22.1 C211.383342,17.833312 213.883317,14.1166825 217.05,10.95 C220.216682,7.7833175 223.933312,5.2833425 228.2,3.45 C232.466688,1.6166575 236.999976,0.7 241.8,0.7 C246.600024,0.7 251.133312,1.6166575 255.4,3.45 C259.666688,5.2833425 263.383317,7.7833175 266.55,10.95 C269.716682,14.1166825 272.216657,17.833312 274.05,22.1 C275.883342,26.366688 276.8,30.899976 276.8,35.7 C276.8,40.500024 275.883342,45.033312 274.05,49.3 C272.216657,53.566688 269.716682,57.2833175 266.55,60.45 C263.383317,63.6166825 259.666688,66.1166575 255.4,67.95 C251.133312,69.7833425 246.600024,70.7 241.8,70.7 C236.999976,70.7 232.466688,69.7833425 228.2,67.95 C223.933312,66.1166575 220.216682,63.6166825 217.05,60.45 C213.883317,57.2833175 211.383342,53.566688 209.55,49.3 C207.716657,45.033312 206.8,40.500024 206.8,35.7 L206.8,35.7 Z M227.8,35.7 C227.8,37.633343 228.166663,39.4499915 228.9,41.15 C229.633337,42.8500085 230.633327,44.333327 231.9,45.6 C233.166673,46.866673 234.649991,47.866663 236.35,48.6 C238.050008,49.333337 239.866657,49.7 241.8,49.7 C243.733343,49.7 245.549991,49.333337 247.25,48.6 C248.950008,47.866663 250.433327,46.866673 251.7,45.6 C252.966673,44.333327 253.966663,42.8500085 254.7,41.15 C255.433337,39.4499915 255.8,37.633343 255.8,35.7 C255.8,33.766657 255.433337,31.9500085 254.7,30.25 C253.966663,28.5499915 252.966673,27.066673 251.7,25.8 C250.433327,24.533327 248.950008,23.533337 247.25,22.8 C245.549991,22.066663 243.733343,21.7 241.8,21.7 C239.866657,21.7 238.050008,22.066663 236.35,22.8 C234.649991,23.533337 233.166673,24.533327 231.9,25.8 C230.633327,27.066673 229.633337,28.5499915 228.9,30.25 C228.166663,31.9500085 227.8,33.766657 227.8,35.7 L227.8,35.7 Z M282.3,2.3 L299.8,2.3 L318.2,28 L318.2,2.3 L339.1,2.3 L339.1,69 L321.5,69 L303.2,43.4 L303.2,69 L282.3,69 L282.3,2.3 Z M388.6,25 C387.399994,23.933328 385.900009,23.1166695 384.1,22.55 C382.299991,21.9833305 380.533342,21.7 378.8,21.7 C376.866657,21.7 375.100008,22.0499965 373.5,22.75 C371.899992,23.4500035 370.516672,24.4166605 369.35,25.65 C368.183327,26.8833395 367.26667,28.366658 366.6,30.1 C365.93333,31.833342 365.6,33.69999 365.6,35.7 C365.6,37.70001 365.966663,39.566658 366.7,41.3 C367.433337,43.033342 368.433327,44.5166605 369.7,45.75 C370.966673,46.9833395 372.449991,47.9499965 374.15,48.65 C375.850008,49.3500035 377.666657,49.7 379.6,49.7 C381.866678,49.7 383.933324,49.2166715 385.8,48.25 C387.666676,47.2833285 389.26666,45.966675 390.6,44.3 L384.6,44.3 L384.6,30.3 L410.3,30.3 L410.3,52.5 C408.766659,55.233347 406.933344,57.7166555 404.8,59.95 C402.666656,62.1833445 400.283346,64.099992 397.65,65.7 C395.016653,67.300008 392.166682,68.533329 389.1,69.4 C386.033318,70.266671 382.866683,70.7 379.6,70.7 C374.799976,70.7 370.266688,69.800009 366,68 C361.733312,66.199991 358.016682,63.733349 354.85,60.6 C351.683317,57.466651 349.183342,53.766688 347.35,49.5 C345.516657,45.233312 344.6,40.633358 344.6,35.7 C344.6,30.899976 345.466658,26.366688 347.2,22.1 C348.933342,17.833312 351.316651,14.1166825 354.35,10.95 C357.383348,7.7833175 360.983312,5.2833425 365.15,3.45 C369.316687,1.6166575 373.799976,0.7 378.6,0.7 C382.333352,0.7 385.566653,1.066663 388.3,1.8 C391.033347,2.533337 393.333324,3.366662 395.2,4.3 C397.400011,5.366672 399.233326,6.533327 400.7,7.8 L388.6,25 Z M435.8,2.3 L458.4,2.3 L458.4,69 L435.8,69 L435.8,2.3 Z M465.4,2.3 L482.9,2.3 L501.3,28 L501.3,2.3 L522.2,2.3 L522.2,69 L504.6,69 L486.3,43.4 L486.3,69 L465.4,69 L465.4,2.3 Z M572.4,2.3 L589.3,2.3 L589.3,46.3 L593.3,46.3 L593.3,59.7 L589.3,59.7 L589.3,69 L569.6,69 L569.6,59.7 L545.2,59.7 L545.2,48.4 L572.4,2.3 Z M560.8,46.3 L569.6,46.3 L569.6,31.5 L560.8,46.3 Z M596.8,2.3 L618.4,2.3 L618.4,17.7 L631,2.3 L657.1,2.3 L633.6,32.8 L658.3,69 L632.6,69 L618.4,48.4 L618.4,69 L596.8,69 L596.8,2.3 Z" id="Geelong-in-4K" stroke="#000000" fill="#FFFFFF"></path>
    </g>
</svg>