<?xml version="1.0" encoding="UTF-8" standalone="no"?>
<svg width="934px" height="80px" viewBox="0 0 934 80" version="1.1" xmlns="http://www.w3.org/2000/svg" xmlns:xlink="http://www.w3.org/1999/xlink">
    <!-- Generator: Sketch 3.7 (28169) - http://www.bohemiancoding.com/sketch -->
    <title>geelong-australia</title>
    <desc>Created with Sketch.</desc>
    <defs></defs>
    <g id="Page-1" stroke="none" stroke-width="1" fill="none" fill-rule="evenodd">
        <g id="geelong-australia">
            <g id="Page-1">
                <g id="Geelong,-Australia">
                    <g id="path-1-link" fill="#000000">
                        <path d="M44,25 C42.799994,23.933328 41.300009,23.1166695 39.5,22.55 C37.699991,21.9833305 35.933342,21.7 34.2,21.7 C32.266657,21.7 30.500008,22.0499965 28.9,22.75 C27.299992,23.4500035 25.9166725,24.4166605 24.75,25.65 C23.5833275,26.8833395 22.66667,28.366658 22,30.1 C21.33333,31.833342 21,33.69999 21,35.7 C21,37.70001 21.366663,39.566658 22.1,41.3 C22.833337,43.033342 23.833327,44.5166605 25.1,45.75 C26.366673,46.9833395 27.8499915,47.9499965 29.55,48.65 C31.2500085,49.3500035 33.066657,49.7 35,49.7 C37.266678,49.7 39.333324,49.2166715 41.2,48.25 C43.066676,47.2833285 44.66666,45.966675 46,44.3 L40,44.3 L40,30.3 L65.7,30.3 L65.7,52.5 C64.166659,55.233347 62.333344,57.7166555 60.2,59.95 C58.066656,62.1833445 55.6833465,64.099992 53.05,65.7 C50.4166535,67.300008 47.566682,68.533329 44.5,69.4 C41.433318,70.266671 38.266683,70.7 35,70.7 C30.199976,70.7 25.666688,69.800009 21.4,68 C17.133312,66.199991 13.4166825,63.733349 10.25,60.6 C7.0833175,57.466651 4.5833425,53.766688 2.75,49.5 C0.9166575,45.233312 0,40.633358 0,35.7 C0,30.899976 0.866658,26.366688 2.6,22.1 C4.333342,17.833312 6.7166515,14.1166825 9.75,10.95 C12.7833485,7.7833175 16.3833125,5.2833425 20.55,3.45 C24.7166875,1.6166575 29.199976,0.7 34,0.7 C37.733352,0.7 40.966653,1.066663 43.7,1.8 C46.433347,2.533337 48.733324,3.366662 50.6,4.3 C52.800011,5.366672 54.633326,6.533327 56.1,7.8 L44,25 L44,25 Z M71.2,2.3 L110.5,2.3 L110.5,19.8 L92.5,19.8 L92.5,27.2 L110.2,27.2 L110.2,43.8 L92.5,43.8 L92.5,51.5 L111.2,51.5 L111.2,69 L71.2,69 L71.2,2.3 L71.2,2.3 Z M117.2,2.3 L156.5,2.3 L156.5,19.8 L138.5,19.8 L138.5,27.2 L156.2,27.2 L156.2,43.8 L138.5,43.8 L138.5,51.5 L157.2,51.5 L157.2,69 L117.2,69 L117.2,2.3 L117.2,2.3 Z M163.2,2.3 L185.4,2.3 L185.4,51.5 L203.8,51.5 L203.8,69 L163.2,69 L163.2,2.3 L163.2,2.3 Z M205.8,35.7 C205.8,30.899976 206.716657,26.366688 208.55,22.1 C210.383342,17.833312 212.883317,14.1166825 216.05,10.95 C219.216682,7.7833175 222.933312,5.2833425 227.2,3.45 C231.466688,1.6166575 235.999976,0.7 240.8,0.7 C245.600024,0.7 250.133312,1.6166575 254.4,3.45 C258.666688,5.2833425 262.383317,7.7833175 265.55,10.95 C268.716682,14.1166825 271.216657,17.833312 273.05,22.1 C274.883342,26.366688 275.8,30.899976 275.8,35.7 C275.8,40.500024 274.883342,45.033312 273.05,49.3 C271.216657,53.566688 268.716682,57.2833175 265.55,60.45 C262.383317,63.6166825 258.666688,66.1166575 254.4,67.95 C250.133312,69.7833425 245.600024,70.7 240.8,70.7 C235.999976,70.7 231.466688,69.7833425 227.2,67.95 C222.933312,66.1166575 219.216682,63.6166825 216.05,60.45 C212.883317,57.2833175 210.383342,53.566688 208.55,49.3 C206.716657,45.033312 205.8,40.500024 205.8,35.7 L205.8,35.7 L205.8,35.7 Z M226.8,35.7 C226.8,37.633343 227.166663,39.4499915 227.9,41.15 C228.633337,42.8500085 229.633327,44.333327 230.9,45.6 C232.166673,46.866673 233.649991,47.866663 235.35,48.6 C237.050008,49.333337 238.866657,49.7 240.8,49.7 C242.733343,49.7 244.549991,49.333337 246.25,48.6 C247.950008,47.866663 249.433327,46.866673 250.7,45.6 C251.966673,44.333327 252.966663,42.8500085 253.7,41.15 C254.433337,39.4499915 254.8,37.633343 254.8,35.7 C254.8,33.766657 254.433337,31.9500085 253.7,30.25 C252.966663,28.5499915 251.966673,27.066673 250.7,25.8 C249.433327,24.533327 247.950008,23.533337 246.25,22.8 C244.549991,22.066663 242.733343,21.7 240.8,21.7 C238.866657,21.7 237.050008,22.066663 235.35,22.8 C233.649991,23.533337 232.166673,24.533327 230.9,25.8 C229.633327,27.066673 228.633337,28.5499915 227.9,30.25 C227.166663,31.9500085 226.8,33.766657 226.8,35.7 L226.8,35.7 L226.8,35.7 Z M281.3,2.3 L298.8,2.3 L317.2,28 L317.2,2.3 L338.1,2.3 L338.1,69 L320.5,69 L302.2,43.4 L302.2,69 L281.3,69 L281.3,2.3 L281.3,2.3 Z M387.6,25 C386.399994,23.933328 384.900009,23.1166695 383.1,22.55 C381.299991,21.9833305 379.533342,21.7 377.8,21.7 C375.866657,21.7 374.100008,22.0499965 372.5,22.75 C370.899992,23.4500035 369.516672,24.4166605 368.35,25.65 C367.183327,26.8833395 366.26667,28.366658 365.6,30.1 C364.93333,31.833342 364.6,33.69999 364.6,35.7 C364.6,37.70001 364.966663,39.566658 365.7,41.3 C366.433337,43.033342 367.433327,44.5166605 368.7,45.75 C369.966673,46.9833395 371.449991,47.9499965 373.15,48.65 C374.850008,49.3500035 376.666657,49.7 378.6,49.7 C380.866678,49.7 382.933324,49.2166715 384.8,48.25 C386.666676,47.2833285 388.26666,45.966675 389.6,44.3 L383.6,44.3 L383.6,30.3 L409.3,30.3 L409.3,52.5 C407.766659,55.233347 405.933344,57.7166555 403.8,59.95 C401.666656,62.1833445 399.283346,64.099992 396.65,65.7 C394.016653,67.300008 391.166682,68.533329 388.1,69.4 C385.033318,70.266671 381.866683,70.7 378.6,70.7 C373.799976,70.7 369.266688,69.800009 365,68 C360.733312,66.199991 357.016682,63.733349 353.85,60.6 C350.683317,57.466651 348.183342,53.766688 346.35,49.5 C344.516657,45.233312 343.6,40.633358 343.6,35.7 C343.6,30.899976 344.466658,26.366688 346.2,22.1 C347.933342,17.833312 350.316651,14.1166825 353.35,10.95 C356.383348,7.7833175 359.983312,5.2833425 364.15,3.45 C368.316687,1.6166575 372.799976,0.7 377.6,0.7 C381.333352,0.7 384.566653,1.066663 387.3,1.8 C390.033347,2.533337 392.333324,3.366662 394.2,4.3 C396.400011,5.366672 398.233326,6.533327 399.7,7.8 L387.6,25 L387.6,25 Z M418,52.3 L437,52.3 L428.3,79.3 L411.3,79.3 L418,52.3 L418,52.3 Z M482,2.3 L498,2.3 L523.3,69 L502.3,69 L500.1,63 L479.9,63 L477.7,69 L456.7,69 L482,2.3 L482,2.3 Z M494.5,48.3 L490,36.6 L485.5,48.3 L494.5,48.3 L494.5,48.3 Z M552.1,70.7 C547.899979,70.7 544.100017,70.166672 540.7,69.1 C537.299983,68.033328 534.400012,66.433344 532,64.3 C529.599988,62.166656 527.750006,59.466683 526.45,56.2 C525.149993,52.933317 524.5,49.100022 524.5,44.7 L524.5,2.3 L545.8,2.3 L545.8,43.8 C545.8,46.133345 546.283328,47.9166605 547.25,49.15 C548.216671,50.3833395 549.833322,51 552.1,51 C554.366678,51 555.983328,50.3833395 556.95,49.15 C557.916671,47.9166605 558.4,46.133345 558.4,43.8 L558.4,2.3 L579.8,2.3 L579.8,44.7 C579.8,49.100022 579.150006,52.933317 577.85,56.2 C576.549993,59.466683 574.683345,62.166656 572.25,64.3 C569.816654,66.433344 566.900017,68.033328 563.5,69.1 C560.099983,70.166672 556.300021,70.7 552.1,70.7 L552.1,70.7 L552.1,70.7 Z M584.7,48.3 C586.166674,48.766669 587.699992,49.133332 589.3,49.4 C590.63334,49.733335 592.149991,49.999999 593.85,50.2 C595.550008,50.400001 597.266658,50.5 599,50.5 C602.066682,50.5 603.6,49.366678 603.6,47.1 C603.6,46.233329 603.133338,45.3500045 602.2,44.45 C601.266662,43.5499955 600.08334,42.5500055 598.65,41.45 C597.216659,40.3499945 595.683341,39.13334 594.05,37.8 C592.416659,36.46666 590.883341,34.933342 589.45,33.2 C588.016659,31.466658 586.833338,29.5166775 585.9,27.35 C584.966662,25.1833225 584.5,22.700014 584.5,19.9 C584.5,16.766651 585.066661,14.000012 586.2,11.6 C587.333339,9.199988 588.89999,7.200008 590.9,5.6 C592.90001,3.999992 595.249986,2.7833375 597.95,1.95 C600.650014,1.1166625 603.533318,0.7 606.6,0.7 C608.200008,0.7 609.799992,0.7833325 611.4,0.95 C613.000008,1.1166675 614.433327,1.266666 615.7,1.4 C617.166674,1.600001 618.599993,1.799999 620,2 L620,20.7 C619.466664,20.633333 618.86667,20.566667 618.2,20.5 C617.666664,20.433333 617.06667,20.366667 616.4,20.3 C615.73333,20.233333 615.033337,20.2 614.3,20.2 C613.899998,20.2 613.400003,20.2166665 612.8,20.25 C612.199997,20.2833335 611.633336,20.366666 611.1,20.5 C610.566664,20.633334 610.100002,20.866665 609.7,21.2 C609.299998,21.533335 609.1,21.999997 609.1,22.6 C609.1,23.133336 609.549996,23.799996 610.45,24.6 C611.350004,25.400004 612.449993,26.333328 613.75,27.4 C615.050007,28.466672 616.483326,29.699993 618.05,31.1 C619.616675,32.500007 621.049994,34.099991 622.35,35.9 C623.650007,37.700009 624.749995,39.733322 625.65,42 C626.550005,44.266678 627,46.799986 627,49.6 C627,52.533348 626.533338,55.2833205 625.6,57.85 C624.666662,60.4166795 623.216677,62.6499905 621.25,64.55 C619.283324,66.4500095 616.766682,67.9499945 613.7,69.05 C610.633318,70.1500055 607.000021,70.7 602.8,70.7 C600.266654,70.7 597.916677,70.5833345 595.75,70.35 C593.583323,70.1166655 591.666675,69.833335 590,69.5 C588.066657,69.166665 586.300008,68.766669 584.7,68.3 L584.7,48.3 L584.7,48.3 Z M640.3,19.8 L628,19.8 L628,2.3 L674.6,2.3 L674.6,19.8 L662.3,19.8 L662.3,69 L640.3,69 L640.3,19.8 L640.3,19.8 Z M678.1,2.3 L701.1,2.3 C705.366688,2.3 709.316649,2.866661 712.95,4 C716.583351,5.133339 719.73332,6.799989 722.4,9 C725.06668,11.200011 727.149992,13.9166505 728.65,17.15 C730.150008,20.3833495 730.9,24.099979 730.9,28.3 C730.9,31.63335 730.433338,34.466655 729.5,36.8 C728.566662,39.133345 727.533339,41.066659 726.4,42.6 C725.06666,44.333342 723.566675,45.799994 721.9,47 L734.4,69 L709.4,69 L699.4,52.1 L699.4,69 L678.1,69 L678.1,2.3 L678.1,2.3 Z M699.4,35.1 L700.5,35.1 C703.033346,35.1 705.183325,34.533339 706.95,33.4 C708.716676,32.266661 709.6,30.36668 709.6,27.7 C709.6,25.03332 708.716676,23.133339 706.95,22 C705.183325,20.866661 703.033346,20.3 700.5,20.3 L699.4,20.3 L699.4,35.1 L699.4,35.1 Z M756.2,2.3 L772.2,2.3 L797.5,69 L776.5,69 L774.3,63 L754.1,63 L751.9,69 L730.9,69 L756.2,2.3 L756.2,2.3 Z M768.7,48.3 L764.2,36.6 L759.7,48.3 L768.7,48.3 L768.7,48.3 Z M799,2.3 L821.2,2.3 L821.2,51.5 L839.6,51.5 L839.6,69 L799,69 L799,2.3 L799,2.3 Z M843.1,2.3 L865.7,2.3 L865.7,69 L843.1,69 L843.1,2.3 L843.1,2.3 Z M892.5,2.3 L908.5,2.3 L933.8,69 L912.8,69 L910.6,63 L890.4,63 L888.2,69 L867.2,69 L892.5,2.3 L892.5,2.3 Z M905,48.3 L900.5,36.6 L896,48.3 L905,48.3 L905,48.3 Z" id="path-1"></path>
                    </g>
                    <g id="path-1-link" fill="#FFFFFF">
                        <path d="M44,25 C42.799994,23.933328 41.300009,23.1166695 39.5,22.55 C37.699991,21.9833305 35.933342,21.7 34.2,21.7 C32.266657,21.7 30.500008,22.0499965 28.9,22.75 C27.299992,23.4500035 25.9166725,24.4166605 24.75,25.65 C23.5833275,26.8833395 22.66667,28.366658 22,30.1 C21.33333,31.833342 21,33.69999 21,35.7 C21,37.70001 21.366663,39.566658 22.1,41.3 C22.833337,43.033342 23.833327,44.5166605 25.1,45.75 C26.366673,46.9833395 27.8499915,47.9499965 29.55,48.65 C31.2500085,49.3500035 33.066657,49.7 35,49.7 C37.266678,49.7 39.333324,49.2166715 41.2,48.25 C43.066676,47.2833285 44.66666,45.966675 46,44.3 L40,44.3 L40,30.3 L65.7,30.3 L65.7,52.5 C64.166659,55.233347 62.333344,57.7166555 60.2,59.95 C58.066656,62.1833445 55.6833465,64.099992 53.05,65.7 C50.4166535,67.300008 47.566682,68.533329 44.5,69.4 C41.433318,70.266671 38.266683,70.7 35,70.7 C30.199976,70.7 25.666688,69.800009 21.4,68 C17.133312,66.199991 13.4166825,63.733349 10.25,60.6 C7.0833175,57.466651 4.5833425,53.766688 2.75,49.5 C0.9166575,45.233312 0,40.633358 0,35.7 C0,30.899976 0.866658,26.366688 2.6,22.1 C4.333342,17.833312 6.7166515,14.1166825 9.75,10.95 C12.7833485,7.7833175 16.3833125,5.2833425 20.55,3.45 C24.7166875,1.6166575 29.199976,0.7 34,0.7 C37.733352,0.7 40.966653,1.066663 43.7,1.8 C46.433347,2.533337 48.733324,3.366662 50.6,4.3 C52.800011,5.366672 54.633326,6.533327 56.1,7.8 L44,25 L44,25 Z M71.2,2.3 L110.5,2.3 L110.5,19.8 L92.5,19.8 L92.5,27.2 L110.2,27.2 L110.2,43.8 L92.5,43.8 L92.5,51.5 L111.2,51.5 L111.2,69 L71.2,69 L71.2,2.3 L71.2,2.3 Z M117.2,2.3 L156.5,2.3 L156.5,19.8 L138.5,19.8 L138.5,27.2 L156.2,27.2 L156.2,43.8 L138.5,43.8 L138.5,51.5 L157.2,51.5 L157.2,69 L117.2,69 L117.2,2.3 L117.2,2.3 Z M163.2,2.3 L185.4,2.3 L185.4,51.5 L203.8,51.5 L203.8,69 L163.2,69 L163.2,2.3 L163.2,2.3 Z M205.8,35.7 C205.8,30.899976 206.716657,26.366688 208.55,22.1 C210.383342,17.833312 212.883317,14.1166825 216.05,10.95 C219.216682,7.7833175 222.933312,5.2833425 227.2,3.45 C231.466688,1.6166575 235.999976,0.7 240.8,0.7 C245.600024,0.7 250.133312,1.6166575 254.4,3.45 C258.666688,5.2833425 262.383317,7.7833175 265.55,10.95 C268.716682,14.1166825 271.216657,17.833312 273.05,22.1 C274.883342,26.366688 275.8,30.899976 275.8,35.7 C275.8,40.500024 274.883342,45.033312 273.05,49.3 C271.216657,53.566688 268.716682,57.2833175 265.55,60.45 C262.383317,63.6166825 258.666688,66.1166575 254.4,67.95 C250.133312,69.7833425 245.600024,70.7 240.8,70.7 C235.999976,70.7 231.466688,69.7833425 227.2,67.95 C222.933312,66.1166575 219.216682,63.6166825 216.05,60.45 C212.883317,57.2833175 210.383342,53.566688 208.55,49.3 C206.716657,45.033312 205.8,40.500024 205.8,35.7 L205.8,35.7 L205.8,35.7 Z M226.8,35.7 C226.8,37.633343 227.166663,39.4499915 227.9,41.15 C228.633337,42.8500085 229.633327,44.333327 230.9,45.6 C232.166673,46.866673 233.649991,47.866663 235.35,48.6 C237.050008,49.333337 238.866657,49.7 240.8,49.7 C242.733343,49.7 244.549991,49.333337 246.25,48.6 C247.950008,47.866663 249.433327,46.866673 250.7,45.6 C251.966673,44.333327 252.966663,42.8500085 253.7,41.15 C254.433337,39.4499915 254.8,37.633343 254.8,35.7 C254.8,33.766657 254.433337,31.9500085 253.7,30.25 C252.966663,28.5499915 251.966673,27.066673 250.7,25.8 C249.433327,24.533327 247.950008,23.533337 246.25,22.8 C244.549991,22.066663 242.733343,21.7 240.8,21.7 C238.866657,21.7 237.050008,22.066663 235.35,22.8 C233.649991,23.533337 232.166673,24.533327 230.9,25.8 C229.633327,27.066673 228.633337,28.5499915 227.9,30.25 C227.166663,31.9500085 226.8,33.766657 226.8,35.7 L226.8,35.7 L226.8,35.7 Z M281.3,2.3 L298.8,2.3 L317.2,28 L317.2,2.3 L338.1,2.3 L338.1,69 L320.5,69 L302.2,43.4 L302.2,69 L281.3,69 L281.3,2.3 L281.3,2.3 Z M387.6,25 C386.399994,23.933328 384.900009,23.1166695 383.1,22.55 C381.299991,21.9833305 379.533342,21.7 377.8,21.7 C375.866657,21.7 374.100008,22.0499965 372.5,22.75 C370.899992,23.4500035 369.516672,24.4166605 368.35,25.65 C367.183327,26.8833395 366.26667,28.366658 365.6,30.1 C364.93333,31.833342 364.6,33.69999 364.6,35.7 C364.6,37.70001 364.966663,39.566658 365.7,41.3 C366.433337,43.033342 367.433327,44.5166605 368.7,45.75 C369.966673,46.9833395 371.449991,47.9499965 373.15,48.65 C374.850008,49.3500035 376.666657,49.7 378.6,49.7 C380.866678,49.7 382.933324,49.2166715 384.8,48.25 C386.666676,47.2833285 388.26666,45.966675 389.6,44.3 L383.6,44.3 L383.6,30.3 L409.3,30.3 L409.3,52.5 C407.766659,55.233347 405.933344,57.7166555 403.8,59.95 C401.666656,62.1833445 399.283346,64.099992 396.65,65.7 C394.016653,67.300008 391.166682,68.533329 388.1,69.4 C385.033318,70.266671 381.866683,70.7 378.6,70.7 C373.799976,70.7 369.266688,69.800009 365,68 C360.733312,66.199991 357.016682,63.733349 353.85,60.6 C350.683317,57.466651 348.183342,53.766688 346.35,49.5 C344.516657,45.233312 343.6,40.633358 343.6,35.7 C343.6,30.899976 344.466658,26.366688 346.2,22.1 C347.933342,17.833312 350.316651,14.1166825 353.35,10.95 C356.383348,7.7833175 359.983312,5.2833425 364.15,3.45 C368.316687,1.6166575 372.799976,0.7 377.6,0.7 C381.333352,0.7 384.566653,1.066663 387.3,1.8 C390.033347,2.533337 392.333324,3.366662 394.2,4.3 C396.400011,5.366672 398.233326,6.533327 399.7,7.8 L387.6,25 L387.6,25 Z M418,52.3 L437,52.3 L428.3,79.3 L411.3,79.3 L418,52.3 L418,52.3 Z M482,2.3 L498,2.3 L523.3,69 L502.3,69 L500.1,63 L479.9,63 L477.7,69 L456.7,69 L482,2.3 L482,2.3 Z M494.5,48.3 L490,36.6 L485.5,48.3 L494.5,48.3 L494.5,48.3 Z M552.1,70.7 C547.899979,70.7 544.100017,70.166672 540.7,69.1 C537.299983,68.033328 534.400012,66.433344 532,64.3 C529.599988,62.166656 527.750006,59.466683 526.45,56.2 C525.149993,52.933317 524.5,49.100022 524.5,44.7 L524.5,2.3 L545.8,2.3 L545.8,43.8 C545.8,46.133345 546.283328,47.9166605 547.25,49.15 C548.216671,50.3833395 549.833322,51 552.1,51 C554.366678,51 555.983328,50.3833395 556.95,49.15 C557.916671,47.9166605 558.4,46.133345 558.4,43.8 L558.4,2.3 L579.8,2.3 L579.8,44.7 C579.8,49.100022 579.150006,52.933317 577.85,56.2 C576.549993,59.466683 574.683345,62.166656 572.25,64.3 C569.816654,66.433344 566.900017,68.033328 563.5,69.1 C560.099983,70.166672 556.300021,70.7 552.1,70.7 L552.1,70.7 L552.1,70.7 Z M584.7,48.3 C586.166674,48.766669 587.699992,49.133332 589.3,49.4 C590.63334,49.733335 592.149991,49.999999 593.85,50.2 C595.550008,50.400001 597.266658,50.5 599,50.5 C602.066682,50.5 603.6,49.366678 603.6,47.1 C603.6,46.233329 603.133338,45.3500045 602.2,44.45 C601.266662,43.5499955 600.08334,42.5500055 598.65,41.45 C597.216659,40.3499945 595.683341,39.13334 594.05,37.8 C592.416659,36.46666 590.883341,34.933342 589.45,33.2 C588.016659,31.466658 586.833338,29.5166775 585.9,27.35 C584.966662,25.1833225 584.5,22.700014 584.5,19.9 C584.5,16.766651 585.066661,14.000012 586.2,11.6 C587.333339,9.199988 588.89999,7.200008 590.9,5.6 C592.90001,3.999992 595.249986,2.7833375 597.95,1.95 C600.650014,1.1166625 603.533318,0.7 606.6,0.7 C608.200008,0.7 609.799992,0.7833325 611.4,0.95 C613.000008,1.1166675 614.433327,1.266666 615.7,1.4 C617.166674,1.600001 618.599993,1.799999 620,2 L620,20.7 C619.466664,20.633333 618.86667,20.566667 618.2,20.5 C617.666664,20.433333 617.06667,20.366667 616.4,20.3 C615.73333,20.233333 615.033337,20.2 614.3,20.2 C613.899998,20.2 613.400003,20.2166665 612.8,20.25 C612.199997,20.2833335 611.633336,20.366666 611.1,20.5 C610.566664,20.633334 610.100002,20.866665 609.7,21.2 C609.299998,21.533335 609.1,21.999997 609.1,22.6 C609.1,23.133336 609.549996,23.799996 610.45,24.6 C611.350004,25.400004 612.449993,26.333328 613.75,27.4 C615.050007,28.466672 616.483326,29.699993 618.05,31.1 C619.616675,32.500007 621.049994,34.099991 622.35,35.9 C623.650007,37.700009 624.749995,39.733322 625.65,42 C626.550005,44.266678 627,46.799986 627,49.6 C627,52.533348 626.533338,55.2833205 625.6,57.85 C624.666662,60.4166795 623.216677,62.6499905 621.25,64.55 C619.283324,66.4500095 616.766682,67.9499945 613.7,69.05 C610.633318,70.1500055 607.000021,70.7 602.8,70.7 C600.266654,70.7 597.916677,70.5833345 595.75,70.35 C593.583323,70.1166655 591.666675,69.833335 590,69.5 C588.066657,69.166665 586.300008,68.766669 584.7,68.3 L584.7,48.3 L584.7,48.3 Z M640.3,19.8 L628,19.8 L628,2.3 L674.6,2.3 L674.6,19.8 L662.3,19.8 L662.3,69 L640.3,69 L640.3,19.8 L640.3,19.8 Z M678.1,2.3 L701.1,2.3 C705.366688,2.3 709.316649,2.866661 712.95,4 C716.583351,5.133339 719.73332,6.799989 722.4,9 C725.06668,11.200011 727.149992,13.9166505 728.65,17.15 C730.150008,20.3833495 730.9,24.099979 730.9,28.3 C730.9,31.63335 730.433338,34.466655 729.5,36.8 C728.566662,39.133345 727.533339,41.066659 726.4,42.6 C725.06666,44.333342 723.566675,45.799994 721.9,47 L734.4,69 L709.4,69 L699.4,52.1 L699.4,69 L678.1,69 L678.1,2.3 L678.1,2.3 Z M699.4,35.1 L700.5,35.1 C703.033346,35.1 705.183325,34.533339 706.95,33.4 C708.716676,32.266661 709.6,30.36668 709.6,27.7 C709.6,25.03332 708.716676,23.133339 706.95,22 C705.183325,20.866661 703.033346,20.3 700.5,20.3 L699.4,20.3 L699.4,35.1 L699.4,35.1 Z M756.2,2.3 L772.2,2.3 L797.5,69 L776.5,69 L774.3,63 L754.1,63 L751.9,69 L730.9,69 L756.2,2.3 L756.2,2.3 Z M768.7,48.3 L764.2,36.6 L759.7,48.3 L768.7,48.3 L768.7,48.3 Z M799,2.3 L821.2,2.3 L821.2,51.5 L839.6,51.5 L839.6,69 L799,69 L799,2.3 L799,2.3 Z M843.1,2.3 L865.7,2.3 L865.7,69 L843.1,69 L843.1,2.3 L843.1,2.3 Z M892.5,2.3 L908.5,2.3 L933.8,69 L912.8,69 L910.6,63 L890.4,63 L888.2,69 L867.2,69 L892.5,2.3 L892.5,2.3 Z M905,48.3 L900.5,36.6 L896,48.3 L905,48.3 L905,48.3 Z" id="path-1"></path>
                    </g>
                    <g id="path-1-link" fill="#FFFFFF">
                        <path d="M44,25 C42.799994,23.933328 41.300009,23.1166695 39.5,22.55 C37.699991,21.9833305 35.933342,21.7 34.2,21.7 C32.266657,21.7 30.500008,22.0499965 28.9,22.75 C27.299992,23.4500035 25.9166725,24.4166605 24.75,25.65 C23.5833275,26.8833395 22.66667,28.366658 22,30.1 C21.33333,31.833342 21,33.69999 21,35.7 C21,37.70001 21.366663,39.566658 22.1,41.3 C22.833337,43.033342 23.833327,44.5166605 25.1,45.75 C26.366673,46.9833395 27.8499915,47.9499965 29.55,48.65 C31.2500085,49.3500035 33.066657,49.7 35,49.7 C37.266678,49.7 39.333324,49.2166715 41.2,48.25 C43.066676,47.2833285 44.66666,45.966675 46,44.3 L40,44.3 L40,30.3 L65.7,30.3 L65.7,52.5 C64.166659,55.233347 62.333344,57.7166555 60.2,59.95 C58.066656,62.1833445 55.6833465,64.099992 53.05,65.7 C50.4166535,67.300008 47.566682,68.533329 44.5,69.4 C41.433318,70.266671 38.266683,70.7 35,70.7 C30.199976,70.7 25.666688,69.800009 21.4,68 C17.133312,66.199991 13.4166825,63.733349 10.25,60.6 C7.0833175,57.466651 4.5833425,53.766688 2.75,49.5 C0.9166575,45.233312 0,40.633358 0,35.7 C0,30.899976 0.866658,26.366688 2.6,22.1 C4.333342,17.833312 6.7166515,14.1166825 9.75,10.95 C12.7833485,7.7833175 16.3833125,5.2833425 20.55,3.45 C24.7166875,1.6166575 29.199976,0.7 34,0.7 C37.733352,0.7 40.966653,1.066663 43.7,1.8 C46.433347,2.533337 48.733324,3.366662 50.6,4.3 C52.800011,5.366672 54.633326,6.533327 56.1,7.8 L44,25 L44,25 Z M71.2,2.3 L110.5,2.3 L110.5,19.8 L92.5,19.8 L92.5,27.2 L110.2,27.2 L110.2,43.8 L92.5,43.8 L92.5,51.5 L111.2,51.5 L111.2,69 L71.2,69 L71.2,2.3 L71.2,2.3 Z M117.2,2.3 L156.5,2.3 L156.5,19.8 L138.5,19.8 L138.5,27.2 L156.2,27.2 L156.2,43.8 L138.5,43.8 L138.5,51.5 L157.2,51.5 L157.2,69 L117.2,69 L117.2,2.3 L117.2,2.3 Z M163.2,2.3 L185.4,2.3 L185.4,51.5 L203.8,51.5 L203.8,69 L163.2,69 L163.2,2.3 L163.2,2.3 Z M205.8,35.7 C205.8,30.899976 206.716657,26.366688 208.55,22.1 C210.383342,17.833312 212.883317,14.1166825 216.05,10.95 C219.216682,7.7833175 222.933312,5.2833425 227.2,3.45 C231.466688,1.6166575 235.999976,0.7 240.8,0.7 C245.600024,0.7 250.133312,1.6166575 254.4,3.45 C258.666688,5.2833425 262.383317,7.7833175 265.55,10.95 C268.716682,14.1166825 271.216657,17.833312 273.05,22.1 C274.883342,26.366688 275.8,30.899976 275.8,35.7 C275.8,40.500024 274.883342,45.033312 273.05,49.3 C271.216657,53.566688 268.716682,57.2833175 265.55,60.45 C262.383317,63.6166825 258.666688,66.1166575 254.4,67.95 C250.133312,69.7833425 245.600024,70.7 240.8,70.7 C235.999976,70.7 231.466688,69.7833425 227.2,67.95 C222.933312,66.1166575 219.216682,63.6166825 216.05,60.45 C212.883317,57.2833175 210.383342,53.566688 208.55,49.3 C206.716657,45.033312 205.8,40.500024 205.8,35.7 L205.8,35.7 L205.8,35.7 Z M226.8,35.7 C226.8,37.633343 227.166663,39.4499915 227.9,41.15 C228.633337,42.8500085 229.633327,44.333327 230.9,45.6 C232.166673,46.866673 233.649991,47.866663 235.35,48.6 C237.050008,49.333337 238.866657,49.7 240.8,49.7 C242.733343,49.7 244.549991,49.333337 246.25,48.6 C247.950008,47.866663 249.433327,46.866673 250.7,45.6 C251.966673,44.333327 252.966663,42.8500085 253.7,41.15 C254.433337,39.4499915 254.8,37.633343 254.8,35.7 C254.8,33.766657 254.433337,31.9500085 253.7,30.25 C252.966663,28.5499915 251.966673,27.066673 250.7,25.8 C249.433327,24.533327 247.950008,23.533337 246.25,22.8 C244.549991,22.066663 242.733343,21.7 240.8,21.7 C238.866657,21.7 237.050008,22.066663 235.35,22.8 C233.649991,23.533337 232.166673,24.533327 230.9,25.8 C229.633327,27.066673 228.633337,28.5499915 227.9,30.25 C227.166663,31.9500085 226.8,33.766657 226.8,35.7 L226.8,35.7 L226.8,35.7 Z M281.3,2.3 L298.8,2.3 L317.2,28 L317.2,2.3 L338.1,2.3 L338.1,69 L320.5,69 L302.2,43.4 L302.2,69 L281.3,69 L281.3,2.3 L281.3,2.3 Z M387.6,25 C386.399994,23.933328 384.900009,23.1166695 383.1,22.55 C381.299991,21.9833305 379.533342,21.7 377.8,21.7 C375.866657,21.7 374.100008,22.0499965 372.5,22.75 C370.899992,23.4500035 369.516672,24.4166605 368.35,25.65 C367.183327,26.8833395 366.26667,28.366658 365.6,30.1 C364.93333,31.833342 364.6,33.69999 364.6,35.7 C364.6,37.70001 364.966663,39.566658 365.7,41.3 C366.433337,43.033342 367.433327,44.5166605 368.7,45.75 C369.966673,46.9833395 371.449991,47.9499965 373.15,48.65 C374.850008,49.3500035 376.666657,49.7 378.6,49.7 C380.866678,49.7 382.933324,49.2166715 384.8,48.25 C386.666676,47.2833285 388.26666,45.966675 389.6,44.3 L383.6,44.3 L383.6,30.3 L409.3,30.3 L409.3,52.5 C407.766659,55.233347 405.933344,57.7166555 403.8,59.95 C401.666656,62.1833445 399.283346,64.099992 396.65,65.7 C394.016653,67.300008 391.166682,68.533329 388.1,69.4 C385.033318,70.266671 381.866683,70.7 378.6,70.7 C373.799976,70.7 369.266688,69.800009 365,68 C360.733312,66.199991 357.016682,63.733349 353.85,60.6 C350.683317,57.466651 348.183342,53.766688 346.35,49.5 C344.516657,45.233312 343.6,40.633358 343.6,35.7 C343.6,30.899976 344.466658,26.366688 346.2,22.1 C347.933342,17.833312 350.316651,14.1166825 353.35,10.95 C356.383348,7.7833175 359.983312,5.2833425 364.15,3.45 C368.316687,1.6166575 372.799976,0.7 377.6,0.7 C381.333352,0.7 384.566653,1.066663 387.3,1.8 C390.033347,2.533337 392.333324,3.366662 394.2,4.3 C396.400011,5.366672 398.233326,6.533327 399.7,7.8 L387.6,25 L387.6,25 Z M418,52.3 L437,52.3 L428.3,79.3 L411.3,79.3 L418,52.3 L418,52.3 Z M482,2.3 L498,2.3 L523.3,69 L502.3,69 L500.1,63 L479.9,63 L477.7,69 L456.7,69 L482,2.3 L482,2.3 Z M494.5,48.3 L490,36.6 L485.5,48.3 L494.5,48.3 L494.5,48.3 Z M552.1,70.7 C547.899979,70.7 544.100017,70.166672 540.7,69.1 C537.299983,68.033328 534.400012,66.433344 532,64.3 C529.599988,62.166656 527.750006,59.466683 526.45,56.2 C525.149993,52.933317 524.5,49.100022 524.5,44.7 L524.5,2.3 L545.8,2.3 L545.8,43.8 C545.8,46.133345 546.283328,47.9166605 547.25,49.15 C548.216671,50.3833395 549.833322,51 552.1,51 C554.366678,51 555.983328,50.3833395 556.95,49.15 C557.916671,47.9166605 558.4,46.133345 558.4,43.8 L558.4,2.3 L579.8,2.3 L579.8,44.7 C579.8,49.100022 579.150006,52.933317 577.85,56.2 C576.549993,59.466683 574.683345,62.166656 572.25,64.3 C569.816654,66.433344 566.900017,68.033328 563.5,69.1 C560.099983,70.166672 556.300021,70.7 552.1,70.7 L552.1,70.7 L552.1,70.7 Z M584.7,48.3 C586.166674,48.766669 587.699992,49.133332 589.3,49.4 C590.63334,49.733335 592.149991,49.999999 593.85,50.2 C595.550008,50.400001 597.266658,50.5 599,50.5 C602.066682,50.5 603.6,49.366678 603.6,47.1 C603.6,46.233329 603.133338,45.3500045 602.2,44.45 C601.266662,43.5499955 600.08334,42.5500055 598.65,41.45 C597.216659,40.3499945 595.683341,39.13334 594.05,37.8 C592.416659,36.46666 590.883341,34.933342 589.45,33.2 C588.016659,31.466658 586.833338,29.5166775 585.9,27.35 C584.966662,25.1833225 584.5,22.700014 584.5,19.9 C584.5,16.766651 585.066661,14.000012 586.2,11.6 C587.333339,9.199988 588.89999,7.200008 590.9,5.6 C592.90001,3.999992 595.249986,2.7833375 597.95,1.95 C600.650014,1.1166625 603.533318,0.7 606.6,0.7 C608.200008,0.7 609.799992,0.7833325 611.4,0.95 C613.000008,1.1166675 614.433327,1.266666 615.7,1.4 C617.166674,1.600001 618.599993,1.799999 620,2 L620,20.7 C619.466664,20.633333 618.86667,20.566667 618.2,20.5 C617.666664,20.433333 617.06667,20.366667 616.4,20.3 C615.73333,20.233333 615.033337,20.2 614.3,20.2 C613.899998,20.2 613.400003,20.2166665 612.8,20.25 C612.199997,20.2833335 611.633336,20.366666 611.1,20.5 C610.566664,20.633334 610.100002,20.866665 609.7,21.2 C609.299998,21.533335 609.1,21.999997 609.1,22.6 C609.1,23.133336 609.549996,23.799996 610.45,24.6 C611.350004,25.400004 612.449993,26.333328 613.75,27.4 C615.050007,28.466672 616.483326,29.699993 618.05,31.1 C619.616675,32.500007 621.049994,34.099991 622.35,35.9 C623.650007,37.700009 624.749995,39.733322 625.65,42 C626.550005,44.266678 627,46.799986 627,49.6 C627,52.533348 626.533338,55.2833205 625.6,57.85 C624.666662,60.4166795 623.216677,62.6499905 621.25,64.55 C619.283324,66.4500095 616.766682,67.9499945 613.7,69.05 C610.633318,70.1500055 607.000021,70.7 602.8,70.7 C600.266654,70.7 597.916677,70.5833345 595.75,70.35 C593.583323,70.1166655 591.666675,69.833335 590,69.5 C588.066657,69.166665 586.300008,68.766669 584.7,68.3 L584.7,48.3 L584.7,48.3 Z M640.3,19.8 L628,19.8 L628,2.3 L674.6,2.3 L674.6,19.8 L662.3,19.8 L662.3,69 L640.3,69 L640.3,19.8 L640.3,19.8 Z M678.1,2.3 L701.1,2.3 C705.366688,2.3 709.316649,2.866661 712.95,4 C716.583351,5.133339 719.73332,6.799989 722.4,9 C725.06668,11.200011 727.149992,13.9166505 728.65,17.15 C730.150008,20.3833495 730.9,24.099979 730.9,28.3 C730.9,31.63335 730.433338,34.466655 729.5,36.8 C728.566662,39.133345 727.533339,41.066659 726.4,42.6 C725.06666,44.333342 723.566675,45.799994 721.9,47 L734.4,69 L709.4,69 L699.4,52.1 L699.4,69 L678.1,69 L678.1,2.3 L678.1,2.3 Z M699.4,35.1 L700.5,35.1 C703.033346,35.1 705.183325,34.533339 706.95,33.4 C708.716676,32.266661 709.6,30.36668 709.6,27.7 C709.6,25.03332 708.716676,23.133339 706.95,22 C705.183325,20.866661 703.033346,20.3 700.5,20.3 L699.4,20.3 L699.4,35.1 L699.4,35.1 Z M756.2,2.3 L772.2,2.3 L797.5,69 L776.5,69 L774.3,63 L754.1,63 L751.9,69 L730.9,69 L756.2,2.3 L756.2,2.3 Z M768.7,48.3 L764.2,36.6 L759.7,48.3 L768.7,48.3 L768.7,48.3 Z M799,2.3 L821.2,2.3 L821.2,51.5 L839.6,51.5 L839.6,69 L799,69 L799,2.3 L799,2.3 Z M843.1,2.3 L865.7,2.3 L865.7,69 L843.1,69 L843.1,2.3 L843.1,2.3 Z M892.5,2.3 L908.5,2.3 L933.8,69 L912.8,69 L910.6,63 L890.4,63 L888.2,69 L867.2,69 L892.5,2.3 L892.5,2.3 Z M905,48.3 L900.5,36.6 L896,48.3 L905,48.3 L905,48.3 Z" id="path-1"></path>
                    </g>
                </g>
            </g>
        </g>
    </g>
</svg>