<?xml version="1.0" encoding="UTF-8" standalone="no"?>
<svg width="25px" height="21px" viewBox="0 0 25 21" version="1.1" xmlns="http://www.w3.org/2000/svg" xmlns:xlink="http://www.w3.org/1999/xlink">
    <!-- Generator: Sketch 3.8.3 (29802) - http://www.bohemiancoding.com/sketch -->
    <title>Shape</title>
    <desc>Created with Sketch.</desc>
    <defs></defs>
    <g id="Page-1" stroke="none" stroke-width="1" fill="none" fill-rule="evenodd">
        <g id="About-v1d" transform="translate(-320.000000, -299.000000)" fill="#000000">
            <path d="M344.204916,301.631393 C343.515612,302.639629 342.682287,303.498674 341.704916,304.208554 C341.715204,304.352587 341.720348,304.568635 341.720348,304.856702 C341.720348,306.194157 341.524877,307.52902 341.133929,308.861332 C340.74298,310.193643 340.14885,311.471922 339.351521,312.696208 C338.554192,313.920494 337.605127,315.003302 336.504299,315.944665 C335.40347,316.886028 334.076323,317.637049 332.522817,318.197751 C330.969312,318.758454 329.307806,319.038801 327.53825,319.038801 C324.75017,319.038801 322.198755,318.292923 319.883929,316.801146 C320.244013,316.842299 320.645243,316.862875 321.087632,316.862875 C323.402459,316.862875 325.465195,316.153005 327.275904,314.733245 C326.195652,314.712669 325.228583,314.380882 324.374669,313.737875 C323.520756,313.094867 322.934342,312.274402 322.61541,311.276455 C322.954918,311.327896 323.268701,311.353616 323.556768,311.353616 C323.999157,311.353616 324.436396,311.297032 324.868496,311.183862 C323.716227,310.947236 322.762019,310.373682 322.005842,309.463183 C321.249666,308.552685 320.871583,307.495597 320.871583,306.291887 L320.871583,306.230159 C321.571175,306.621107 322.322196,306.83201 323.124669,306.862875 C322.445654,306.410198 321.905536,305.81864 321.504299,305.088183 C321.103062,304.357727 320.902447,303.565554 320.902447,302.71164 C320.902447,301.806286 321.128782,300.967817 321.581459,300.196208 C322.826322,301.729138 324.341224,302.955977 326.126213,303.876764 C327.911201,304.79755 329.82219,305.309376 331.859237,305.412257 C331.776932,305.021309 331.73578,304.640654 331.73578,304.270282 C331.73578,302.891674 332.221887,301.716275 333.194114,300.744048 C334.166341,299.771821 335.341741,299.285714 336.720348,299.285714 C338.160685,299.285714 339.374664,299.8104 340.362324,300.859788 C341.483728,300.643738 342.538245,300.242507 343.525904,299.656085 C343.145244,300.839218 342.414798,301.754847 341.334546,302.402998 C342.291341,302.300117 343.248121,302.042918 344.204916,301.631393 L344.204916,301.631393 Z" id="Shape"></path>
        </g>
    </g>
</svg>