<?xml version="1.0" encoding="UTF-8" standalone="no"?>
<svg width="20px" height="15px" viewBox="0 0 20 15" version="1.1" xmlns="http://www.w3.org/2000/svg" xmlns:xlink="http://www.w3.org/1999/xlink">
    <!-- Generator: Sketch 3.8.3 (29802) - http://www.bohemiancoding.com/sketch -->
    <title>Page 1</title>
    <desc>Created with Sketch.</desc>
    <defs></defs>
    <g id="Page-1" stroke="none" stroke-width="1" fill="none" fill-rule="evenodd">
        <g id="About-v1d" transform="translate(-135.000000, -302.000000)" fill="#000000">
            <path d="M153.416404,302.895 L136.583066,302.895 C135.710364,302.895 135,303.605894 135,304.478066 L135,315.161108 C135,316.03381 135.710364,316.744174 136.583066,316.744174 L153.416404,316.744174 C154.289106,316.744174 155,316.03381 155,315.161108 L155,304.475944 C154.997878,303.603772 154.289106,302.895 153.416404,302.895 L153.416404,302.895 Z M144.87241,312.081451 C144.847476,312.106385 144.826786,312.124953 144.81034,312.135563 C144.797607,312.127075 144.781161,312.112751 144.762593,312.094183 L137.331096,304.244107 L152.508687,304.244107 L144.87241,312.081451 Z M141.316348,310.415624 L136.349107,314.680459 L136.349107,305.16827 L141.316348,310.415624 Z M142.244755,311.395491 L143.79705,313.034792 C144.10369,313.341431 144.455954,313.494751 144.81034,313.494751 C145.164726,313.494751 145.521234,313.339309 145.832118,313.026834 L147.64702,311.163654 L152.455105,315.391353 L137.589989,315.391353 L142.244755,311.395491 Z M153.648771,314.647036 L148.588159,310.198111 L153.648771,305.00434 L153.648771,314.647036 Z" id="Page-1"></path>
        </g>
    </g>
</svg>