<?xml version="1.0" encoding="UTF-8" standalone="no"?>
<svg width="19px" height="19px" viewBox="0 0 19 19" version="1.1" xmlns="http://www.w3.org/2000/svg" xmlns:xlink="http://www.w3.org/1999/xlink">
    <!-- Generator: Sketch 3.8.3 (29802) - http://www.bohemiancoding.com/sketch -->
    <title></title>
    <desc>Created with Sketch.</desc>
    <defs></defs>
    <g id="Page-1" stroke="none" stroke-width="1" fill="none" fill-rule="evenodd">
        <g id="About-v1d" transform="translate(-641.000000, -300.000000)" fill="#000000">
            <path d="M657.203782,313.69958 C657.203782,313.405461 657.100841,313.155463 656.894958,312.94958 L654.60084,310.655462 C654.394957,310.449579 654.144959,310.346639 653.85084,310.346639 C653.542015,310.346639 653.277312,310.464285 653.056723,310.69958 C653.078782,310.721639 653.148634,310.789653 653.266282,310.903624 C653.383929,311.017595 653.462972,311.096638 653.503414,311.140756 C653.543855,311.184874 653.599002,311.254726 653.668855,311.350315 C653.738708,311.445904 653.786502,311.539653 653.812237,311.631565 C653.837973,311.723477 653.85084,311.824579 653.85084,311.934874 C653.85084,312.228993 653.7479,312.478991 653.542017,312.684874 C653.336133,312.890757 653.086136,312.993697 652.792017,312.993697 C652.681722,312.993697 652.58062,312.98083 652.488708,312.955095 C652.396796,312.929359 652.303047,312.881565 652.207458,312.811712 C652.111869,312.741859 652.042017,312.686712 651.997899,312.646271 C651.953781,312.60583 651.874738,312.526786 651.760767,312.409139 C651.646796,312.291491 651.578782,312.221639 651.556723,312.19958 C651.314074,312.427522 651.192752,312.695902 651.192752,313.004727 C651.192752,313.298846 651.295692,313.548844 651.501576,313.754727 L653.773634,316.037815 C653.972165,316.236346 654.222162,316.335609 654.523634,316.335609 C654.817754,316.335609 655.067751,316.240022 655.273634,316.048845 L656.894958,314.43855 C657.100841,314.232667 657.203782,313.986346 657.203782,313.69958 L657.203782,313.69958 Z M649.450105,305.923845 C649.450105,305.629725 649.347165,305.379728 649.141282,305.173845 L646.869223,302.890756 C646.663339,302.684873 646.413342,302.581933 646.119223,302.581933 C645.832457,302.581933 645.582459,302.681196 645.369223,302.879727 L643.747899,304.490021 C643.542016,304.695904 643.439076,304.942225 643.439076,305.228992 C643.439076,305.523111 643.542016,305.773108 643.747899,305.978992 L646.042017,308.273109 C646.240547,308.47164 646.490545,308.570903 646.792017,308.570903 C647.100842,308.570903 647.365545,308.456934 647.586134,308.228992 C647.564076,308.206933 647.494223,308.138919 647.376576,308.024947 C647.258928,307.910976 647.179885,307.831933 647.139443,307.787815 C647.099002,307.743697 647.043855,307.673845 646.974002,307.578256 C646.904149,307.482668 646.856355,307.388919 646.83062,307.297006 C646.804884,307.205094 646.792017,307.103992 646.792017,306.993697 C646.792017,306.699578 646.894957,306.449581 647.10084,306.243697 C647.306724,306.037814 647.556721,305.934874 647.85084,305.934874 C647.961135,305.934874 648.062237,305.947741 648.154149,305.973477 C648.246061,305.999212 648.33981,306.047006 648.435399,306.116859 C648.530988,306.186713 648.60084,306.241859 648.644958,306.2823 C648.689076,306.322742 648.768119,306.401785 648.88209,306.519433 C648.996061,306.63708 649.064076,306.706933 649.086134,306.728992 C649.328783,306.501049 649.450105,306.23267 649.450105,305.923845 L649.450105,305.923845 Z M659.321429,313.69958 C659.321429,314.581937 659.008932,315.328253 658.383929,315.93855 L656.762605,317.548845 C656.152308,318.159142 655.405992,318.464286 654.523634,318.464286 C653.633924,318.464286 652.883932,318.151789 652.273634,317.526786 L650.001576,315.243697 C649.391278,314.6334 649.086134,313.887084 649.086134,313.004727 C649.086134,312.100311 649.409661,311.331936 650.056723,310.69958 L649.086134,309.728992 C648.453778,310.376054 647.68908,310.69958 646.792017,310.69958 C645.909659,310.69958 645.159667,310.390759 644.542017,309.773109 L642.247899,307.478992 C641.630249,306.861341 641.321429,306.111349 641.321429,305.228992 C641.321429,304.346634 641.633925,303.600318 642.258929,302.990021 L643.880252,301.379727 C644.490549,300.76943 645.236865,300.464286 646.119223,300.464286 C647.008933,300.464286 647.758926,300.776783 648.369223,301.401786 L650.641282,303.684874 C651.251579,304.295171 651.556723,305.041487 651.556723,305.923845 C651.556723,306.828261 651.233197,307.596635 650.586134,308.228992 L651.556723,309.19958 C652.189079,308.552518 652.953777,308.228992 653.85084,308.228992 C654.733198,308.228992 655.48319,308.537812 656.10084,309.155462 L658.394958,311.44958 C659.012608,312.06723 659.321429,312.817222 659.321429,313.69958 L659.321429,313.69958 Z" id=""></path>
        </g>
    </g>
</svg>