<?xml version="1.0" encoding="UTF-8" standalone="no"?>
<svg width="21px" height="31px" viewBox="0 0 21 31" version="1.1" xmlns="http://www.w3.org/2000/svg" xmlns:xlink="http://www.w3.org/1999/xlink">
    <!-- Generator: Sketch 3.8.3 (29802) - http://www.bohemiancoding.com/sketch -->
    <title>Page 1</title>
    <desc>Created with Sketch.</desc>
    <defs></defs>
    <g id="Page-1" stroke="none" stroke-width="1" fill="none" fill-rule="evenodd">
        <g id="About-v1d" transform="translate(-266.000000, -343.000000)" fill="#000000">
            <path d="M276.5,343.5 C270.64976,343.5 266,348.15024 266,354 C266,359.84976 276.5,373.5 276.5,373.5 C276.5,373.5 287,359.84976 287,354 C287,348.15024 282.35024,343.5 276.5,343.5 L276.5,343.5 Z M276.5,358.5 C273.95024,358.5 272,356.55024 272,354 C272,351.44976 273.95024,349.5 276.5,349.5 C279.04976,349.5 281,351.44976 281,354 C281,356.55024 279.04976,358.5 276.5,358.5 L276.5,358.5 Z" id="Page-1"></path>
        </g>
    </g>
</svg>