<?xml version="1.0" encoding="UTF-8" standalone="no"?>
<svg width="21px" height="15px" viewBox="0 0 21 15" version="1.1" xmlns="http://www.w3.org/2000/svg" xmlns:xlink="http://www.w3.org/1999/xlink">
    <!-- Generator: Sketch 3.8.3 (29802) - http://www.bohemiancoding.com/sketch -->
    <title>Page 1</title>
    <desc>Created with Sketch.</desc>
    <defs></defs>
    <g id="Page-1" stroke="none" stroke-width="1" fill="none" fill-rule="evenodd">
        <g id="Home-v1d" transform="translate(-476.000000, -661.000000)" fill="#FFFFFF">
            <g id="Page-1" transform="translate(476.000000, 661.000000)">
                <path d="M10.5438158,4.79513514 C9.04342105,4.79513514 7.82842105,6.04297297 7.82842105,7.58554054 C7.82842105,9.12648649 9.04342105,10.3759459 10.5438158,10.3759459 C12.0457895,10.3759459 13.2607895,9.12648649 13.2607895,7.58554054 C13.2623684,6.04297297 12.0457895,4.79513514 10.5438158,4.79513514 L10.5438158,4.79513514 Z" id="Fill-1"></path>
                <path d="M20.7714474,7.17851351 C18.6635526,2.9327027 14.7453947,0.29472973 10.5453947,0.29472973 C6.345,0.29472973 2.42684211,2.9327027 0.319342105,7.17851351 L0.117236842,7.58391892 L0.319342105,7.98932432 C2.42684211,12.2351351 6.345,14.8735135 10.5453947,14.8735135 C14.7453947,14.8735135 18.6635526,12.2367568 20.7714474,7.98932432 L20.9735526,7.58391892 L20.7714474,7.17851351 Z M10.5453947,13.0868919 C7.13605263,13.0868919 3.92881579,10.9901351 2.08026316,7.58554054 C3.92881579,4.17932432 7.13605263,2.08256757 10.5453947,2.08256757 C13.9547368,2.08256757 17.1619737,4.17932432 19.0105263,7.58554054 C17.1619737,10.9901351 13.9547368,13.0868919 10.5453947,13.0868919 L10.5453947,13.0868919 Z" id="Fill-2"></path>
            </g>
        </g>
    </g>
</svg>