<?xml version="1.0" encoding="UTF-8" standalone="no"?>
<svg width="11px" height="24px" viewBox="0 0 11 24" version="1.1" xmlns="http://www.w3.org/2000/svg" xmlns:xlink="http://www.w3.org/1999/xlink">
    <!-- Generator: Sketch 3.8.3 (29802) - http://www.bohemiancoding.com/sketch -->
    <title>Shape</title>
    <desc>Created with Sketch.</desc>
    <defs></defs>
    <g id="Page-1" stroke="none" stroke-width="1" fill="none" fill-rule="evenodd">
        <path d="M7.13167476,8.00069348 L10.7184466,8.00069348 L10.2997573,11.9642857 L7.13167476,11.9642857 L7.13167476,23.4642857 L2.37257282,23.4642857 L2.37257282,11.9642857 L0,11.9642857 L0,8.00069348 L2.37257282,8.00069348 L2.37257282,5.61416436 C2.37257282,3.92079019 2.77264972,2.63914848 3.57281553,1.76920076 C4.37298135,0.899253047 5.68951349,0.464285714 7.52245146,0.464285714 L10.690534,0.464285714 L10.690534,4.42787795 L8.70873786,4.42787795 C8.34587197,4.42787795 8.05511841,4.45811632 7.83646845,4.51859397 C7.61781849,4.57907162 7.45964855,4.68839496 7.36195388,4.84656727 C7.26425922,5.00473958 7.20145645,5.16523555 7.17354369,5.32805999 C7.14563093,5.49088442 7.13167476,5.72116125 7.13167476,6.01889736 L7.13167476,8.00069348 Z" id="Shape" fill="#000000"></path>
    </g>
</svg>