<?xml version="1.0" encoding="UTF-8" standalone="no"?>
<svg width="22px" height="23px" viewBox="0 0 22 23" version="1.1" xmlns="http://www.w3.org/2000/svg" xmlns:xlink="http://www.w3.org/1999/xlink">
    <!-- Generator: Sketch 3.8.3 (29802) - http://www.bohemiancoding.com/sketch -->
    <title>Shape</title>
    <desc>Created with Sketch.</desc>
    <defs></defs>
    <g id="Page-1" stroke="none" stroke-width="1" fill="none" fill-rule="evenodd">
        <g id="About-v1d" transform="translate(-130.000000, -344.000000)" fill="#000000">
            <path d="M152,362.089286 C152,362.370537 151.947917,362.737721 151.84375,363.190848 C151.739583,363.643975 151.630209,364.000743 151.515625,364.261161 C151.296874,364.781997 150.661464,365.334074 149.609375,365.917411 C148.630203,366.448663 147.661463,366.714286 146.703125,366.714286 C146.421874,366.714286 146.148439,366.696057 145.882813,366.659598 C145.617186,366.62314 145.31771,366.558036 144.984375,366.464286 C144.65104,366.370535 144.403647,366.295015 144.242188,366.237723 C144.080728,366.180431 143.791669,366.073661 143.375,365.917411 C142.958331,365.76116 142.703125,365.667411 142.609375,365.636161 C141.588537,365.271576 140.677087,364.839288 139.875,364.339286 C138.54166,363.516365 137.16407,362.39398 135.742188,360.972098 C134.320305,359.550216 133.197921,358.172626 132.375,356.839286 C131.874998,356.037198 131.44271,355.125749 131.078125,354.104911 C131.046875,354.01116 130.953126,353.755954 130.796875,353.339286 C130.640624,352.922617 130.533854,352.633557 130.476562,352.472098 C130.419271,352.310639 130.34375,352.063246 130.25,351.729911 C130.15625,351.396576 130.091146,351.0971 130.054688,350.831473 C130.018229,350.565847 130,350.292412 130,350.011161 C130,349.052823 130.265622,348.084082 130.796875,347.104911 C131.380211,346.052822 131.932289,345.417412 132.453125,345.198661 C132.713543,345.084077 133.07031,344.974703 133.523438,344.870536 C133.976565,344.766369 134.343749,344.714286 134.625,344.714286 C134.770834,344.714286 134.880208,344.729911 134.953125,344.761161 C135.140626,344.823661 135.416665,345.21949 135.78125,345.948661 C135.895834,346.146578 136.052082,346.427826 136.25,346.792411 C136.447918,347.156996 136.630208,347.487722 136.796875,347.784598 C136.963543,348.081475 137.124999,348.360118 137.28125,348.620536 C137.3125,348.662203 137.403645,348.79241 137.554688,349.011161 C137.70573,349.229912 137.817708,349.414806 137.890625,349.565848 C137.963542,349.716891 138,349.865327 138,350.011161 C138,350.219495 137.851564,350.479909 137.554688,350.792411 C137.257811,351.104912 136.934898,351.391368 136.585938,351.651786 C136.236977,351.912204 135.914064,352.188243 135.617188,352.479911 C135.320311,352.771579 135.171875,353.01116 135.171875,353.198661 C135.171875,353.292411 135.197916,353.409598 135.25,353.550223 C135.302084,353.690849 135.346354,353.797619 135.382812,353.870536 C135.419271,353.943453 135.492187,354.068451 135.601562,354.245536 C135.710938,354.42262 135.770833,354.521577 135.78125,354.542411 C136.572921,355.969501 137.479162,357.193447 138.5,358.214286 C139.520838,359.235124 140.744785,360.141365 142.171875,360.933036 C142.192708,360.943452 142.291666,361.003348 142.46875,361.112723 C142.645834,361.222099 142.770833,361.295015 142.84375,361.331473 C142.916667,361.367932 143.023437,361.412202 143.164062,361.464286 C143.304688,361.516369 143.421875,361.542411 143.515625,361.542411 C143.703126,361.542411 143.942707,361.393975 144.234375,361.097098 C144.526043,360.800222 144.802082,360.477308 145.0625,360.128348 C145.322918,359.779388 145.609373,359.456475 145.921875,359.159598 C146.234377,358.862722 146.494791,358.714286 146.703125,358.714286 C146.848959,358.714286 146.997395,358.750744 147.148438,358.823661 C147.29948,358.896578 147.484374,359.008556 147.703125,359.159598 C147.921876,359.310641 148.052083,359.401786 148.09375,359.433036 C148.354168,359.589286 148.632811,359.750743 148.929687,359.917411 C149.226564,360.084078 149.55729,360.266368 149.921875,360.464286 C150.28646,360.662203 150.567707,360.818452 150.765625,360.933036 C151.494795,361.297621 151.890625,361.57366 151.953125,361.761161 C151.984375,361.834078 152,361.943452 152,362.089286 L152,362.089286 Z" id="Shape"></path>
        </g>
    </g>
</svg>